<?xml version="1.0" encoding="utf-8"?>
<!-- Generator: Adobe Illustrator 21.0.2, SVG Export Plug-In . SVG Version: 6.00 Build 0)  -->
<svg version="1.1" id="_x30_" xmlns="http://www.w3.org/2000/svg" xmlns:xlink="http://www.w3.org/1999/xlink" x="0px" y="0px"
	 viewBox="0 0 577.47 574.47" enable-background="new 0 0 577.47 574.47" xml:space="preserve">
<path fill="#FFA600" d="M144.48,290.98c-72.63,0-131.51,58.88-131.51,131.51S71.85,554,144.48,554s131.51-58.88,131.51-131.51
	S217.11,290.98,144.48,290.98z M251.58,382.65c0,5.75-1.29,11.21-3.58,16.1c-4.75-10.18-4.75-22.02,0-32.21
	C250.29,371.44,251.58,376.89,251.58,382.65z M150.4,512.42c4.68,4.43,10.38,7.8,16.71,9.69c-6.23,1.86-11.95,5.17-16.68,9.63
	C151.96,525.31,151.9,518.69,150.4,512.42z M147.8,504.09c10.93,0.97,21.27,6.62,27.89,16.1
	C164.17,519.2,154.11,513.06,147.8,504.09z M138.53,531.74c-4.73-4.46-10.45-7.77-16.68-9.63c6.34-1.89,12.04-5.26,16.72-9.69
	C137.06,518.69,137,525.31,138.53,531.74z M113.28,520.19c3.19-4.55,7.33-8.38,12.16-11.16c4.98-2.88,10.35-4.49,15.73-4.95
	C134.87,513.05,124.81,519.19,113.28,520.19z M138.54,332.54c-4.67-4.43-10.36-7.78-16.69-9.67c6.22-1.86,11.93-5.16,16.66-9.61
	C137.01,319.54,137,326.11,138.54,332.54z M141.16,340.89c-10.92-0.97-21.27-6.62-27.89-16.1
	C124.79,325.78,134.86,331.92,141.16,340.89z M150.46,313.26c4.72,4.45,10.43,7.75,16.65,9.61c-6.32,1.89-12.01,5.24-16.69,9.67
	C151.96,326.11,151.96,319.54,150.46,313.26z M175.68,324.79c-3.18,4.55-7.33,8.38-12.15,11.16c-4.98,2.88-10.35,4.49-15.74,4.95
	C154.09,331.93,164.16,325.78,175.68,324.79z M242.08,432.17c-4.67-4.43-10.35-7.79-16.67-9.68c6.32-1.89,12-5.25,16.67-9.68
	C240.57,419.17,240.57,425.81,242.08,432.17z M216.8,420.59c6.3-8.98,16.36-15.12,27.88-16.12
	C238.38,413.45,228.32,419.59,216.8,420.59z M207.55,491.84c-4.68-4.42-10.34-7.7-16.65-9.58c6.3-1.89,11.98-5.24,16.64-9.65
	c-0.74,3.09-1.14,6.32-1.14,9.64C206.4,485.49,206.8,488.71,207.55,491.84z M182.25,480.35c3.15-4.52,7.28-8.33,12.19-11.17
	c4.91-2.83,10.27-4.5,15.76-4.97C203.89,473.21,193.8,479.37,182.25,480.35z M150.43,472.61c4.65,4.4,10.32,7.75,16.61,9.64
	c-3.05,0.92-6.02,2.19-8.85,3.82c-2.86,1.66-5.45,3.61-7.75,5.79c0.73-3.09,1.13-6.3,1.13-9.61
	C151.57,478.93,151.17,475.7,150.43,472.61z M147.79,464.23c11.52,1,21.59,7.14,27.88,16.12
	C164.16,479.35,154.09,473.21,147.79,464.23z M138.53,491.86c-2.31-2.18-4.89-4.13-7.76-5.79c-2.83-1.63-5.8-2.9-8.85-3.82
	c6.29-1.89,11.96-5.24,16.62-9.64c-0.74,3.09-1.15,6.32-1.15,9.64C137.39,485.56,137.79,488.77,138.53,491.86z M113.29,480.35
	c6.3-8.98,16.36-15.12,27.88-16.12C134.87,473.21,124.81,479.35,113.29,480.35z M81.39,472.58c4.67,4.42,10.36,7.78,16.68,9.68
	c-6.3,1.87-11.96,5.14-16.63,9.55C82.95,485.41,82.88,478.82,81.39,472.58z M78.79,464.24c5.38,0.46,10.75,2.07,15.73,4.94
	c4.91,2.84,9.05,6.65,12.2,11.17C95.18,479.37,85.09,473.22,78.79,464.24z M81.42,353.14c4.67,4.42,10.34,7.7,16.65,9.58
	c-6.31,1.89-11.99,5.24-16.65,9.65c0.74-3.1,1.14-6.32,1.14-9.64C82.56,359.49,82.16,356.27,81.42,353.14z M106.68,364.63
	c-3.09,4.44-7.17,8.29-12.16,11.16c-4.98,2.88-10.35,4.49-15.73,4.95C85.09,371.76,95.16,365.62,106.68,364.63z M138.54,372.37
	c-4.67-4.41-10.34-7.76-16.64-9.64c3.06-0.93,6.04-2.19,8.87-3.83c2.84-1.63,5.43-3.57,7.75-5.76c-0.73,3.08-1.13,6.29-1.13,9.59
	C137.39,366.05,137.8,369.27,138.54,372.37z M141.17,380.74c-11.52-0.99-21.58-7.14-27.88-16.11
	C124.81,365.63,134.87,371.77,141.17,380.74z M150.44,353.14c2.33,2.19,4.92,4.13,7.75,5.76c2.84,1.64,5.82,2.9,8.88,3.83
	c-6.31,1.89-11.98,5.23-16.64,9.64c0.74-3.1,1.14-6.32,1.14-9.64C151.57,359.43,151.17,356.22,150.44,353.14z M175.67,364.63
	c-6.29,8.97-16.36,15.12-27.88,16.11C154.09,371.77,164.16,365.63,175.67,364.63z M207.58,372.4c-4.67-4.43-10.36-7.78-16.68-9.68
	c6.29-1.88,11.95-5.14,16.62-9.55C206.01,359.57,206.08,366.16,207.58,372.4z M210.2,380.77c-5.49-0.47-10.85-2.14-15.76-4.98
	c-4.98-2.87-9.07-6.72-12.16-11.16C193.82,365.62,203.9,371.78,210.2,380.77z M184.93,452.69c4.66,4.4,10.32,7.75,16.62,9.64
	c-3.05,0.92-6.03,2.19-8.86,3.82c-2.83,1.64-5.42,3.58-7.74,5.76c0.73-3.08,1.12-6.28,1.12-9.58
	C186.07,459.01,185.67,455.78,184.93,452.69z M182.3,444.31c11.52,1,21.58,7.14,27.88,16.12
	C198.66,459.43,188.6,453.29,182.3,444.31z M173.04,471.98c-4.66-4.41-10.33-7.76-16.64-9.65c6.31-1.89,11.98-5.23,16.64-9.64
	c-0.74,3.09-1.14,6.32-1.14,9.64S172.3,468.88,173.04,471.98z M147.79,460.43c6.3-8.98,16.37-15.12,27.88-16.12
	C169.38,453.29,159.31,459.43,147.79,460.43z M150.43,432.76c4.66,4.41,10.33,7.76,16.63,9.65c-6.3,1.89-11.97,5.24-16.63,9.65
	c0.74-3.1,1.14-6.33,1.14-9.65S151.17,435.86,150.43,432.76z M147.79,424.39c11.52,1,21.59,7.14,27.88,16.12
	C164.16,439.51,154.09,433.37,147.79,424.39z M150.43,392.92c4.66,4.41,10.33,7.76,16.63,9.65c-6.3,1.89-11.97,5.23-16.63,9.64
	c0.74-3.09,1.14-6.32,1.14-9.64S151.17,396.02,150.43,392.92z M175.67,404.47c-6.29,8.98-16.36,15.12-27.88,16.12
	C154.09,411.61,164.16,405.47,175.67,404.47z M173.04,432.14c-4.66-4.41-10.33-7.76-16.64-9.65c6.31-1.89,11.98-5.24,16.64-9.65
	c-0.74,3.1-1.14,6.33-1.14,9.65C171.9,425.81,172.3,429.04,173.04,432.14z M175.4,422.49c0-5.76,1.29-11.22,3.59-16.12
	c2.29,4.9,3.58,10.36,3.58,16.12s-1.29,11.22-3.58,16.11C176.69,433.71,175.4,428.25,175.4,422.49z M207.54,452.06
	c-4.66-4.41-10.33-7.76-16.63-9.65c6.3-1.89,11.97-5.24,16.63-9.65c-0.74,3.1-1.14,6.33-1.14,9.65S206.8,448.96,207.54,452.06z
	 M182.3,440.51c6.3-8.98,16.36-15.12,27.88-16.12C203.88,433.37,193.82,439.51,182.3,440.51z M184.93,412.84
	c4.66,4.41,10.34,7.76,16.64,9.65c-6.3,1.89-11.98,5.24-16.64,9.65c0.74-3.1,1.14-6.33,1.14-9.65
	C186.07,419.17,185.67,415.94,184.93,412.84z M182.3,404.47c11.52,1,21.58,7.14,27.88,16.12
	C198.66,419.59,188.6,413.45,182.3,404.47z M207.54,412.21c-4.66-4.41-10.33-7.75-16.63-9.64c6.3-1.89,11.97-5.24,16.63-9.65
	c-0.74,3.1-1.14,6.33-1.14,9.65S206.8,409.12,207.54,412.21z M182.3,400.67c6.3-8.98,16.36-15.12,27.88-16.12
	C203.88,393.53,193.82,399.67,182.3,400.67z M184.94,373.04c2.31,2.18,4.89,4.13,7.75,5.79c2.84,1.63,5.82,2.9,8.88,3.82
	c-6.3,1.89-11.98,5.23-16.64,9.64c0.74-3.09,1.14-6.32,1.14-9.64C186.07,379.34,185.67,376.13,184.94,373.04z M182.57,382.65
	c0,5.76-1.29,11.21-3.58,16.11c-2.3-4.9-3.59-10.35-3.59-16.11s1.29-11.22,3.59-16.12C181.28,371.43,182.57,376.89,182.57,382.65z
	 M173.04,392.29c-4.66-4.41-10.33-7.75-16.64-9.64c6.31-1.89,11.98-5.24,16.64-9.65c-0.74,3.1-1.14,6.33-1.14,9.65
	S172.3,389.2,173.04,392.29z M175.67,400.67c-11.51-1-21.58-7.14-27.88-16.12C159.31,385.55,169.38,391.69,175.67,400.67z
	 M148.07,402.57c0,5.76-1.29,11.22-3.59,16.11c-2.29-4.89-3.59-10.35-3.59-16.11s1.3-11.22,3.59-16.12
	C146.78,391.35,148.07,396.81,148.07,402.57z M138.54,452.06c-4.67-4.41-10.34-7.76-16.64-9.65c6.3-1.89,11.97-5.24,16.64-9.65
	c-0.74,3.1-1.15,6.33-1.15,9.65S137.8,448.96,138.54,452.06z M113.29,440.51c6.3-8.98,16.36-15.12,27.88-16.12
	C134.87,433.37,124.81,439.51,113.29,440.51z M104.02,471.91c-2.33-2.18-4.92-4.12-7.75-5.76c-2.86-1.65-5.84-2.91-8.88-3.82
	c6.31-1.89,11.98-5.23,16.64-9.64c-0.74,3.09-1.14,6.32-1.14,9.64C102.89,465.63,103.29,468.83,104.02,471.91z M78.79,460.43
	c6.29-8.98,16.36-15.12,27.88-16.12C100.37,453.29,90.3,459.43,78.79,460.43z M81.42,432.76c4.66,4.41,10.33,7.76,16.64,9.65
	c-6.31,1.89-11.98,5.24-16.64,9.65c0.74-3.1,1.14-6.33,1.14-9.65S82.16,435.86,81.42,432.76z M78.79,424.39
	c11.51,1,21.58,7.14,27.88,16.12C95.15,439.51,85.08,433.37,78.79,424.39z M81.42,392.92c4.66,4.41,10.33,7.76,16.64,9.65
	c-6.31,1.89-11.98,5.23-16.64,9.64c0.74-3.09,1.14-6.32,1.14-9.64S82.16,396.02,81.42,392.92z M106.67,404.47
	c-6.3,8.98-16.37,15.12-27.88,16.12C85.08,411.61,95.15,405.47,106.67,404.47z M104.03,432.14c-4.66-4.41-10.33-7.76-16.63-9.65
	c6.3-1.89,11.97-5.24,16.63-9.65c-0.74,3.1-1.14,6.33-1.14,9.65C102.89,425.81,103.29,429.04,104.03,432.14z M106.39,422.49
	c0-5.76,1.29-11.22,3.59-16.12c2.29,4.9,3.59,10.36,3.59,16.12s-1.3,11.22-3.59,16.11C107.68,433.71,106.39,428.25,106.39,422.49z
	 M115.92,412.84c4.67,4.41,10.34,7.76,16.64,9.65c-6.3,1.89-11.97,5.24-16.64,9.65c0.74-3.1,1.15-6.33,1.15-9.65
	C117.07,419.17,116.66,415.94,115.92,412.84z M113.29,404.47c11.52,1,21.58,7.14,27.88,16.12
	C129.65,419.59,119.59,413.45,113.29,404.47z M115.92,373c4.67,4.41,10.34,7.76,16.64,9.65c-6.3,1.89-11.97,5.23-16.64,9.64
	c0.74-3.09,1.15-6.32,1.15-9.64S116.66,376.1,115.92,373z M141.17,384.55c-6.3,8.98-16.36,15.12-27.88,16.12
	C119.59,391.69,129.65,385.55,141.17,384.55z M138.54,412.21c-4.67-4.41-10.34-7.75-16.64-9.64c6.3-1.89,11.97-5.24,16.64-9.65
	c-0.74,3.1-1.15,6.33-1.15,9.65S137.8,409.12,138.54,412.21z M113.57,382.65c0,5.76-1.3,11.21-3.59,16.11
	c-2.3-4.9-3.59-10.35-3.59-16.11s1.29-11.22,3.59-16.12C112.27,371.43,113.57,376.89,113.57,382.65z M104.03,392.29
	c-4.66-4.41-10.35-7.76-16.66-9.65c3.05-0.91,6.03-2.16,8.9-3.81c2.86-1.66,5.45-3.61,7.75-5.79c-0.73,3.09-1.13,6.3-1.13,9.61
	C102.89,385.97,103.29,389.2,104.03,392.29z M106.67,400.67c-11.52-1-21.59-7.14-27.88-16.12
	C90.3,385.55,100.37,391.69,106.67,400.67z M79.06,402.57c0,5.76-1.29,11.22-3.59,16.11c-2.29-4.89-3.58-10.35-3.58-16.11
	s1.29-11.22,3.58-16.12C77.77,391.35,79.06,396.81,79.06,402.57z M79.06,442.41c0,5.76-1.29,11.22-3.59,16.12
	c-2.29-4.9-3.58-10.36-3.58-16.12s1.29-11.22,3.58-16.12C77.77,431.19,79.06,436.65,79.06,442.41z M106.39,462.33
	c0-5.76,1.29-11.22,3.59-16.11c2.29,4.89,3.59,10.35,3.59,16.11s-1.3,11.22-3.59,16.12C107.68,473.55,106.39,468.09,106.39,462.33z
	 M115.92,452.69c4.67,4.41,10.34,7.75,16.64,9.64c-6.3,1.89-11.97,5.24-16.64,9.65c0.74-3.1,1.15-6.33,1.15-9.65
	S116.66,455.78,115.92,452.69z M113.29,444.31c11.52,1,21.58,7.14,27.88,16.12C129.65,459.43,119.59,453.29,113.29,444.31z
	 M140.89,442.41c0-5.76,1.3-11.22,3.59-16.12c2.3,4.9,3.59,10.36,3.59,16.12s-1.29,11.22-3.59,16.12
	C142.19,453.63,140.89,448.17,140.89,442.41z M175.4,462.33c0-5.76,1.29-11.22,3.59-16.11c2.29,4.89,3.58,10.35,3.58,16.11
	s-1.29,11.22-3.58,16.12C176.69,473.55,175.4,468.09,175.4,462.33z M209.9,442.41c0-5.76,1.29-11.22,3.59-16.12
	c2.3,4.9,3.59,10.36,3.59,16.12s-1.29,11.22-3.59,16.12C211.19,453.63,209.9,448.17,209.9,442.41z M209.9,402.57
	c0-5.76,1.29-11.22,3.59-16.12c2.3,4.9,3.59,10.36,3.59,16.12s-1.29,11.22-3.59,16.11C211.19,413.79,209.9,408.33,209.9,402.57z
	 M219.45,392.96c2.3,2.18,4.88,4.13,7.75,5.79c2.81,1.62,5.81,2.89,8.91,3.81c-6.32,1.89-12,5.24-16.67,9.65
	c0.74-3.09,1.14-6.32,1.14-9.64C220.58,399.26,220.18,396.05,219.45,392.96z M228.95,395.72c-4.99-2.88-9.07-6.73-12.16-11.17
	c11.52,0.99,21.58,7.13,27.88,16.1C239.15,400.17,233.77,398.5,228.95,395.72z M225.4,382.64c6.32-1.88,11.99-5.16,16.66-9.59
	c-1.49,6.34-1.49,12.94,0.02,19.27C237.41,387.9,231.72,384.54,225.4,382.64z M223.35,379.6c-2.17,0.58-4.36,0.96-6.55,1.15
	c6.3-8.98,16.37-15.13,27.9-16.12C239.58,371.98,232.11,377.25,223.35,379.6z M219.44,353.08c4.73,4.46,10.45,7.77,16.68,9.63
	c-6.32,1.89-12.01,5.24-16.68,9.66c0.74-3.1,1.14-6.32,1.14-9.64C220.58,359.4,220.18,356.18,219.44,353.08z M216.8,344.71
	c11.51,0.99,21.57,7.13,27.87,16.1C233.49,359.83,223.24,353.91,216.8,344.71z M217.08,362.73c0,5.75-1.29,11.2-3.58,16.1
	c-4.63-9.95-4.91-21.74-0.01-32.22C215.79,351.51,217.08,356.97,217.08,362.73z M188.84,359.68c-2.17,0.58-4.36,0.96-6.55,1.15
	c6.3-8.98,16.38-15.13,27.91-16.12C205.08,352.06,197.6,357.33,188.84,359.68z M184.93,333.16c4.73,4.46,10.45,7.77,16.69,9.63
	c-6.32,1.89-12.01,5.24-16.69,9.66c0.74-3.1,1.14-6.32,1.14-9.64C186.07,339.48,185.67,336.26,184.93,333.16z M182.29,324.79
	c11.52,0.99,21.58,7.13,27.88,16.1C198.98,339.9,188.74,333.99,182.29,324.79z M182.57,342.81c0,5.75-1.28,11.2-3.58,16.1
	c-4.62-9.95-4.91-21.74,0-32.22C181.28,331.59,182.57,337.05,182.57,342.81z M173.07,352.48c-4.67-4.43-10.36-7.79-16.69-9.68
	c3.04-0.91,6.03-2.16,8.9-3.82c2.81-1.62,5.41-3.59,7.75-5.8C171.51,339.6,171.57,346.22,173.07,352.48z M175.69,360.85
	c-5.48-0.47-10.84-2.14-15.75-4.98c-4.99-2.88-9.07-6.72-12.16-11.16C159.31,345.7,169.39,351.86,175.69,360.85z M148.07,362.73
	c0,5.75-1.29,11.21-3.59,16.11c-2.29-4.9-3.59-10.36-3.59-16.11c0-5.76,1.3-11.22,3.59-16.12
	C146.78,351.51,148.07,356.97,148.07,362.73z M129.02,355.87c-4.91,2.84-10.27,4.51-15.75,4.98c6.3-8.99,16.38-15.15,27.92-16.14
	C138.09,349.15,134.01,352.99,129.02,355.87z M115.93,333.19c4.8,4.52,10.54,7.77,16.69,9.6c-6.34,1.89-12.04,5.25-16.73,9.69
	C117.39,346.22,117.46,339.61,115.93,333.19z M109.97,358.91c-2.29-4.9-3.58-10.35-3.58-16.1c0-5.76,1.29-11.22,3.59-16.12
	C114.88,337.17,114.6,348.96,109.97,358.91z M78.79,340.89c6.3-8.97,16.37-15.11,27.88-16.1C100.23,333.99,89.98,339.9,78.79,340.89
	z M104.03,352.45c-4.67-4.42-10.36-7.77-16.68-9.66c6.23-1.86,11.95-5.17,16.68-9.63c-0.74,3.1-1.14,6.32-1.14,9.65
	C102.89,346.13,103.29,349.35,104.03,352.45z M106.67,360.83c-2.19-0.19-4.38-0.57-6.55-1.15c-8.76-2.35-16.23-7.62-21.36-14.97
	C90.3,345.7,100.37,351.85,106.67,360.83z M79.06,362.73c0,5.75-1.29,11.21-3.59,16.11c-2.29-4.9-3.58-10.36-3.58-16.11
	c0-5.76,1.29-11.21,3.58-16.11C77.82,351.65,79.06,357.15,79.06,362.73z M44.29,360.81c6.3-8.97,16.36-15.11,27.88-16.1
	C65.72,353.91,55.48,359.83,44.29,360.81z M69.53,372.37c-4.68-4.42-10.37-7.77-16.69-9.66c6.24-1.86,11.96-5.17,16.69-9.63
	c-0.74,3.1-1.14,6.32-1.14,9.65C68.39,366.05,68.79,369.27,69.53,372.37z M72.15,380.73c-10.92-0.97-21.27-6.62-27.89-16.1
	C55.78,365.62,65.85,371.76,72.15,380.73z M46.89,373c4.8,4.54,10.55,7.79,16.73,9.63c-6.34,1.89-12.05,5.25-16.73,9.69
	C48.4,385.98,48.4,379.35,46.89,373z M72.16,384.55c-6.3,8.98-16.36,15.12-27.88,16.12C50.58,391.69,60.64,385.55,72.16,384.55z
	 M69.53,412.21c-4.66-4.41-10.34-7.75-16.64-9.64c6.3-1.89,11.98-5.24,16.64-9.65c-0.74,3.1-1.14,6.33-1.14,9.65
	S68.79,409.12,69.53,412.21z M72.16,420.59c-11.52-1-21.58-7.14-27.88-16.12C55.8,405.47,65.86,411.61,72.16,420.59z M46.89,412.81
	c4.66,4.43,10.35,7.79,16.66,9.68c-6.31,1.89-12,5.25-16.66,9.68C48.4,425.81,48.4,419.17,46.89,412.81z M40.97,438.59
	c-2.3-4.89-3.59-10.35-3.59-16.1s1.29-11.21,3.59-16.11C45.71,416.57,45.71,428.41,40.97,438.59z M72.16,424.39
	c-6.3,8.98-16.36,15.12-27.88,16.12C50.58,431.53,60.64,425.39,72.16,424.39z M69.52,452.02c-2.31-2.18-4.89-4.13-7.75-5.79
	c-2.82-1.62-5.82-2.89-8.91-3.81c6.31-1.89,12-5.24,16.67-9.66c-0.74,3.1-1.14,6.33-1.14,9.65
	C68.39,445.72,68.79,448.93,69.52,452.02z M60.02,449.26c4.98,2.88,9.07,6.73,12.16,11.17c-11.52-0.99-21.59-7.13-27.89-16.11
	C49.81,444.81,55.2,446.48,60.02,449.26z M63.6,462.34c-6.17,1.84-11.91,5.09-16.7,9.62c1.5-6.34,1.49-12.96-0.01-19.3
	C51.56,457.09,57.26,460.45,63.6,462.34z M72.15,464.25c-6.3,8.97-16.37,15.11-27.89,16.1C50.88,470.87,61.23,465.22,72.15,464.25z
	 M69.53,491.9c-4.73-4.46-10.45-7.77-16.69-9.63c6.32-1.89,12.01-5.24,16.69-9.66c-0.74,3.09-1.14,6.32-1.14,9.64
	S68.79,488.8,69.53,491.9z M72.17,500.27c-11.52-0.99-21.58-7.13-27.88-16.1C55.48,485.15,65.72,491.07,72.17,500.27z M71.89,482.25
	c0-5.75,1.28-11.2,3.58-16.1c4.62,9.95,4.91,21.74,0.01,32.22C73.18,493.47,71.89,488.01,71.89,482.25z M100.12,485.3
	c2.17-0.58,4.36-0.96,6.55-1.15c-6.3,8.98-16.37,15.13-27.91,16.12C83.89,492.92,91.36,487.65,100.12,485.3z M104.03,511.82
	c-4.73-4.46-10.45-7.77-16.68-9.63c6.32-1.89,12.01-5.24,16.68-9.66c-0.74,3.1-1.14,6.32-1.14,9.64
	C102.89,505.49,103.29,508.72,104.03,511.82z M106.67,520.19c-11.51-1-21.58-7.13-27.88-16.1
	C89.98,505.07,100.23,510.99,106.67,520.19z M106.39,502.17c0-5.76,1.29-11.22,3.59-16.12c0.93,2,1.71,4.09,2.29,6.26
	c2.34,8.76,1.52,17.87-2.29,25.98C107.68,513.39,106.39,507.93,106.39,502.17z M115.92,492.52c4.66,4.42,10.34,7.76,16.64,9.65
	c-3.03,0.91-6.01,2.17-8.87,3.82c-2.81,1.62-5.39,3.58-7.73,5.79C117.45,505.51,117.46,498.94,115.92,492.52z M113.27,484.13
	c5.48,0.47,10.85,2.14,15.75,4.97c4.92,2.84,9.05,6.65,12.2,11.17C129.67,499.29,119.58,493.13,113.27,484.13z M140.89,482.25
	c0-5.76,1.3-11.21,3.59-16.11c2.3,4.9,3.59,10.35,3.59,16.11s-1.29,11.22-3.59,16.12C142.19,493.47,140.89,488.01,140.89,482.25z
	 M159.94,489.1c4.91-2.83,10.27-4.5,15.75-4.97c-6.3,9-16.4,15.16-27.95,16.14C150.89,495.75,155.03,491.94,159.94,489.1z
	 M173,511.74c-4.78-4.5-10.51-7.73-16.64-9.55c6.32-1.89,12.01-5.24,16.69-9.67C171.51,498.93,171.51,505.48,173,511.74z
	 M176.7,492.31c0.58-2.17,1.35-4.26,2.28-6.26c2.3,4.9,3.59,10.36,3.59,16.12s-1.29,11.22-3.59,16.12
	C175.18,510.18,174.35,501.07,176.7,492.31z M210.17,504.09c-6.3,8.97-16.36,15.1-27.88,16.1
	C188.74,510.99,198.98,505.07,210.17,504.09z M184.93,492.53c4.68,4.42,10.37,7.77,16.69,9.66c-6.24,1.86-11.96,5.17-16.69,9.63
	c0.74-3.1,1.14-6.33,1.14-9.65C186.07,498.85,185.67,495.63,184.93,492.53z M182.29,484.15c2.19,0.19,4.38,0.57,6.55,1.15
	c8.76,2.35,16.24,7.62,21.36,14.97C198.67,499.28,188.59,493.13,182.29,484.15z M209.9,482.25c0-5.76,1.29-11.21,3.59-16.11
	c2.3,4.9,3.59,10.35,3.59,16.11s-1.29,11.21-3.59,16.11C211.15,493.33,209.9,487.82,209.9,482.25z M244.67,484.17
	c-6.3,8.97-16.36,15.11-27.87,16.1C223.24,491.07,233.49,485.15,244.67,484.17z M219.44,472.61c4.67,4.42,10.36,7.77,16.68,9.66
	c-6.23,1.86-11.95,5.17-16.68,9.63c0.74-3.1,1.14-6.33,1.14-9.65S220.18,475.7,219.44,472.61z M216.8,464.23
	c2.19,0.19,4.38,0.57,6.55,1.15c8.76,2.35,16.23,7.62,21.35,14.97C233.17,479.36,223.1,473.21,216.8,464.23z M242.06,471.93
	c-4.67-4.43-10.34-7.71-16.66-9.59c6.32-1.9,12.01-5.26,16.68-9.68C240.57,458.99,240.57,465.59,242.06,471.93z M216.8,460.43
	c6.3-8.98,16.36-15.12,27.88-16.12C238.38,453.29,228.32,459.43,216.8,460.43z M219.44,432.76c4.66,4.41,10.33,7.76,16.63,9.65
	c-6.3,1.89-11.97,5.24-16.63,9.65c0.74-3.1,1.14-6.33,1.14-9.65S220.18,435.86,219.44,432.76z M216.8,424.39
	c11.52,1,21.58,7.14,27.88,16.12C233.16,439.51,223.1,433.37,216.8,424.39z M248,406.38c2.29,4.9,3.58,10.36,3.58,16.11
	s-1.29,11.21-3.58,16.1C243.25,428.41,243.25,416.57,248,406.38z M246.24,357.05c-7.43-9.48-18.87-15.66-31.75-15.97
	c-7.16-11.69-19.91-19.57-34.51-19.92c-6.3-10.3-16.95-17.66-29.38-19.5C190.31,303.67,224.73,323.6,246.24,357.05z M175.67,320.97
	c-11.19-0.99-21.44-6.9-27.88-16.1C159.31,305.86,169.37,312,175.67,320.97z M144.48,338.97c-4.62-9.94-4.9-21.73,0-32.2
	C149.38,317.24,149.1,329.03,144.48,338.97z M113.3,320.97c6.3-8.97,16.36-15.11,27.88-16.1
	C134.73,314.07,124.48,319.98,113.3,320.97z M138.36,301.66c-12.42,1.84-23.08,9.2-29.38,19.5c-14.59,0.35-27.35,8.23-34.5,19.92
	c-12.88,0.31-24.32,6.49-31.75,15.97C64.24,323.6,98.65,303.67,138.36,301.66z M40.97,366.54c4.74,10.19,4.74,22.03,0,32.21
	c-2.3-4.89-3.59-10.35-3.59-16.1C37.38,376.89,38.67,371.44,40.97,366.54z M36.84,367.27c-1.91,4.76-2.96,9.94-2.96,15.38
	c0,7.21,1.85,14,5.09,19.92c-3.24,5.92-5.09,12.71-5.09,19.92c0,7.21,1.85,14,5.09,19.92c-3.24,5.92-5.09,12.71-5.09,19.92
	c0,5.43,1.05,10.62,2.96,15.38C18.7,442.36,18.7,402.62,36.84,367.27z M37.38,462.33c0-5.75,1.29-11.21,3.59-16.1
	c4.74,10.18,4.74,22.02,0,32.21C38.67,473.54,37.38,468.09,37.38,462.33z M42.73,487.93c7.43,9.48,18.87,15.66,31.75,15.97
	c7.15,11.68,19.91,19.57,34.5,19.92c6.3,10.3,16.96,17.66,29.38,19.5C98.65,541.3,64.24,521.38,42.73,487.93z M113.3,524.01
	c11.18,0.98,21.43,6.9,27.88,16.1C129.66,539.12,119.6,532.98,113.3,524.01z M142.19,512.23c0.59-2.17,1.36-4.27,2.29-6.27
	c0.93,2,1.71,4.1,2.29,6.27c2.35,8.77,1.52,17.87-2.29,25.99C140.67,530.1,139.84,521,142.19,512.23z M175.67,524.01
	c-6.3,8.97-16.36,15.11-27.88,16.1C154.23,530.91,164.48,524.99,175.67,524.01z M150.6,543.32c12.43-1.84,23.08-9.2,29.38-19.5
	c14.6-0.35,27.35-8.24,34.51-19.92c12.87-0.31,24.32-6.49,31.74-15.97C224.72,521.38,190.31,541.3,150.6,543.32z M248,478.44
	c-4.75-10.19-4.75-22.03,0-32.21c2.29,4.89,3.58,10.35,3.58,16.1C251.58,468.09,250.29,473.54,248,478.44z M249.99,442.41
	c3.24-5.92,5.09-12.71,5.09-19.92c0-7.21-1.85-14-5.09-19.92c3.24-5.92,5.09-12.71,5.09-19.92c0-5.44-1.05-10.62-2.96-15.38
	c18.14,35.35,18.14,75.09,0,110.44c1.91-4.76,2.96-9.95,2.96-15.38C255.08,455.12,253.23,448.33,249.99,442.41z"/>
<g>
	<path fill="#FFA600" d="M361.54,102.53c-12.14,0.72-23.22,7.12-29.92,17.27C343.76,119.08,354.84,112.67,361.54,102.53z"/>
	<path fill="#FFA600" d="M361.54,139.73c-0.21-0.32-0.42-0.63-0.64-0.94c-6.74-9.6-17.52-15.63-29.27-16.33
		C338.32,132.61,349.41,139.01,361.54,139.73z"/>
	<path fill="#FFA600" d="M398.35,198.16c5.44-10.87,5.44-23.67,0-34.54c-0.17,0.34-0.33,0.68-0.49,1.02c-4.79,10.3-4.79,22.2,0,32.5
		C398.02,197.48,398.18,197.82,398.35,198.16z"/>
	<path fill="#FFA600" d="M361.54,142.37c-12.14,0.72-23.22,7.12-29.92,17.27C343.76,158.92,354.84,152.52,361.54,142.37z"/>
	<path fill="#FFA600" d="M363.85,178.24c5.44-10.87,5.44-23.67-0.01-34.54c-5.27,10.53-5.43,22.87-0.49,33.51
		C363.51,177.56,363.68,177.9,363.85,178.24z"/>
	<path fill="#FFA600" d="M361.55,179.56c-0.21-0.32-0.42-0.63-0.64-0.94c-6.75-9.6-17.52-15.63-29.28-16.33
		C338.32,172.44,349.41,178.84,361.55,179.56z"/>
	<path fill="#FFA600" d="M360.91,98.94c-6.75-9.6-17.52-15.63-29.28-16.34c6.69,10.15,17.78,16.55,29.92,17.28
		C361.34,99.56,361.13,99.25,360.91,98.94z"/>
	<path fill="#FFA600" d="M430.55,99.89c-0.21-0.32-0.42-0.63-0.64-0.94c-6.74-9.6-17.52-15.63-29.28-16.33
		C407.33,92.77,418.42,99.17,430.55,99.89z"/>
	<path fill="#FFA600" d="M429.91,59.09c-6.74-9.59-17.52-15.62-29.27-16.33c6.69,10.15,17.78,16.55,29.91,17.27
		C430.34,59.71,430.13,59.4,429.91,59.09z"/>
	<path fill="#FFA600" d="M397.86,84.96c-4.79,10.3-4.79,22.2,0,32.5c0.16,0.34,0.32,0.68,0.49,1.02c5.44-10.87,5.44-23.68,0-34.55
		C398.18,84.27,398.02,84.61,397.86,84.96z"/>
	<path fill="#FFA600" d="M396.05,119.81c-0.21-0.32-0.42-0.63-0.64-0.94c-6.75-9.6-17.52-15.63-29.28-16.33
		C372.83,112.69,383.91,119.09,396.05,119.81z"/>
	<path fill="#FFA600" d="M366.14,99.89c11.75-0.71,22.53-6.74,29.27-16.34c0.22-0.31,0.43-0.62,0.64-0.94
		C383.92,83.34,372.83,89.74,366.14,99.89z"/>
	<path fill="#FFA600" d="M363.34,137.38c0.16,0.34,0.32,0.68,0.49,1.02c5.44-10.87,5.44-23.67,0-34.54
		C358.56,114.39,358.4,126.73,363.34,137.38z"/>
	<path fill="#FFA600" d="M504.15,142.38c6.69,10.15,17.78,16.55,29.91,17.27c-0.21-0.32-0.42-0.63-0.64-0.94
		C526.68,149.11,515.9,143.08,504.15,142.38z"/>
	<path fill="#FFA600" d="M430.55,182.21c-12.14,0.72-23.22,7.12-29.92,17.27C412.77,198.76,423.85,192.36,430.55,182.21z"/>
	<path fill="#FFA600" d="M533.43,163.24c0.22-0.31,0.43-0.62,0.64-0.94c-12.14,0.72-23.22,7.12-29.92,17.27
		C515.91,178.87,526.68,172.84,533.43,163.24z"/>
	<path fill="#FFA600" d="M498.92,178.62c-6.74-9.6-17.52-15.63-29.27-16.33c6.69,10.15,17.78,16.55,29.91,17.27
		C499.35,179.24,499.14,178.93,498.92,178.62z"/>
	<path fill="#FFA600" d="M430.55,62.68c-12.14,0.73-23.22,7.13-29.92,17.28C412.77,79.23,423.85,72.83,430.55,62.68z"/>
	<path fill="#FFA600" d="M499.55,182.21c-12.13,0.72-23.22,7.12-29.91,17.27C481.78,198.76,492.86,192.36,499.55,182.21z"/>
	<path fill="#FFA600" d="M534.06,122.45c-12.14,0.72-23.22,7.12-29.92,17.27c11.76-0.7,22.53-6.73,29.28-16.33
		C533.64,123.08,533.85,122.77,534.06,122.45z"/>
	<path fill="#FFA600" d="M501.86,178.24c5.44-10.87,5.44-23.67,0-34.54c-5.27,10.53-5.43,22.87-0.49,33.52
		C501.53,177.56,501.69,177.9,501.86,178.24z"/>
	<path fill="#FFA600" d="M432.85,218.08c5.44-10.87,5.44-23.67,0-34.54c-5.27,10.53-5.43,22.87-0.49,33.52
		C432.52,217.4,432.68,217.74,432.85,218.08z"/>
	<path fill="#FFA600" d="M430.55,219.4c-0.21-0.32-0.42-0.63-0.64-0.94c-6.74-9.6-17.52-15.63-29.27-16.33
		C407.33,212.28,418.42,218.68,430.55,219.4z"/>
	<path fill="#FFA600" d="M464.42,203.08c0.22-0.31,0.43-0.62,0.64-0.94c-12.13,0.72-23.22,7.13-29.91,17.27
		C446.9,218.71,457.68,212.68,464.42,203.08z"/>
	<path fill="#FFA600" d="M467.36,163.62c-5.44,10.87-5.44,23.67,0,34.54C472.8,187.29,472.8,174.49,467.36,163.62z"/>
	<path fill="#FFA600" d="M435.14,182.22c6.69,10.15,17.78,16.55,29.92,17.27C458.36,189.35,447.27,182.95,435.14,182.22z"/>
	<path fill="#FFA600" d="M366.13,139.72c12.13-0.72,23.22-7.12,29.91-17.27C383.91,123.17,372.82,129.57,366.13,139.72z"/>
	<path fill="#FFA600" d="M501.36,137.38c0.16,0.34,0.32,0.68,0.49,1.02c5.44-10.87,5.44-23.67,0-34.54
		C496.58,114.39,496.42,126.73,501.36,137.38z"/>
	<path fill="#FFA600" d="M469.64,159.64c12.14-0.72,23.22-7.12,29.91-17.27C487.42,143.09,476.33,149.49,469.64,159.64z"/>
	<path fill="#FFA600" d="M533.42,118.87c-6.74-9.6-17.52-15.63-29.27-16.33c6.69,10.15,17.78,16.55,29.91,17.27
		C533.85,119.49,533.64,119.18,533.42,118.87z"/>
	<path fill="#FFA600" d="M466.87,124.8c-4.79,10.3-4.79,22.2,0,32.5c0.16,0.34,0.32,0.68,0.49,1.02c5.44-10.87,5.44-23.67,0-34.54
		C467.19,124.12,467.03,124.46,466.87,124.8z"/>
	<path fill="#FFA600" d="M366.13,142.38c6.7,10.15,17.78,16.55,29.92,17.27C389.35,149.5,378.27,143.1,366.13,142.38z"/>
	<path fill="#FFA600" d="M395.41,163.24c0.22-0.31,0.43-0.62,0.64-0.94c-12.13,0.72-23.22,7.12-29.91,17.27
		C377.89,178.87,388.67,172.84,395.41,163.24z"/>
	<path fill="#FFA600" d="M499.56,139.73c-0.21-0.32-0.42-0.63-0.64-0.94c-6.75-9.6-17.52-15.63-29.28-16.33
		C476.34,132.61,487.42,139.01,499.56,139.73z"/>
	<path fill="#FFA600" d="M395.41,198.55c-6.75-9.59-17.52-15.62-29.28-16.33c6.7,10.15,17.78,16.55,29.92,17.27
		C395.84,199.17,395.63,198.86,395.41,198.55z"/>
	<path fill="#FFA600" d="M539.29,77.3l6.21-3.58c-8.15-13.64-18.71-25.68-31.17-35.55l-4.36,5.69
		C521.68,53.15,531.61,64.48,539.29,77.3z"/>
	<path fill="#FFA600" d="M555.59,122.89l7.1-0.93c-2.31-15.72-7.46-30.89-15.19-44.77l-6.21,3.58
		C548.56,93.83,553.4,108.1,555.59,122.89z"/>
	<path fill="#FFA600" d="M498.92,98.94c-6.74-9.6-17.52-15.63-29.27-16.34c6.69,10.15,17.78,16.55,29.91,17.28
		C499.35,99.56,499.14,99.25,498.92,98.94z"/>
	<path fill="#FFA600" d="M499.55,102.53c-12.13,0.72-23.22,7.12-29.91,17.27C481.78,119.08,492.86,112.67,499.55,102.53z"/>
	<path fill="#FFA600" d="M366.13,219.4c12.13-0.72,23.22-7.12,29.91-17.27C383.91,202.85,372.82,209.26,366.13,219.4z"/>
	<path fill="#FFA600" d="M400.64,159.65c12.13-0.73,23.22-7.13,29.91-17.28C418.41,143.1,407.33,149.5,400.64,159.65z"/>
	<path fill="#FFA600" d="M464.42,158.72c-6.75-9.6-17.52-15.63-29.28-16.33c6.7,10.15,17.78,16.55,29.92,17.27
		C464.85,159.34,464.64,159.03,464.42,158.72z"/>
	<path fill="#FFA600" d="M435.15,139.74c11.76-0.71,22.53-6.74,29.28-16.34c0.22-0.31,0.43-0.62,0.64-0.94
		C452.93,123.19,441.84,129.59,435.15,139.74z"/>
	<path fill="#FFA600" d="M465.05,162.29c-12.14,0.72-23.22,7.12-29.91,17.27C447.27,178.84,458.36,172.44,465.05,162.29z"/>
	<path fill="#FFA600" d="M435.14,99.88c12.13-0.73,23.22-7.13,29.91-17.27C452.91,83.33,441.83,89.73,435.14,99.88z"/>
	<path fill="#FFA600" d="M435.14,102.54c6.69,10.15,17.78,16.55,29.92,17.27C458.36,109.66,447.27,103.26,435.14,102.54z"/>
	<path fill="#FFA600" d="M432.84,178.25c5.45-10.87,5.44-23.67,0-34.54c-5.27,10.53-5.43,22.87-0.49,33.51
		C432.51,177.57,432.67,177.91,432.84,178.25z"/>
	<path fill="#FFA600" d="M432.35,97.54c0.16,0.34,0.32,0.68,0.49,1.02c5.44-10.87,5.44-23.67,0-34.54
		C427.57,74.55,427.41,86.89,432.35,97.54z"/>
	<path fill="#FFA600" d="M398.35,123.78c-5.44,10.87-5.44,23.67,0,34.54C403.79,147.45,403.79,134.65,398.35,123.78z"/>
	<path fill="#FFA600" d="M430.55,179.57c-0.21-0.32-0.42-0.63-0.64-0.94c-6.74-9.6-17.52-15.62-29.28-16.33
		C407.33,172.45,418.42,178.85,430.55,179.57z"/>
	<path fill="#FFA600" d="M400.64,122.45c6.7,10.15,17.78,16.55,29.92,17.27C423.86,129.58,412.78,123.18,400.64,122.45z"/>
	<path fill="#FFA600" d="M432.86,103.86c-5.44,10.87-5.44,23.67,0,34.55C438.3,127.53,438.3,114.73,432.86,103.86z"/>
	<path fill="#FFA600" d="M400.63,119.8c12.14-0.72,23.22-7.13,29.92-17.27C418.41,103.25,407.33,109.65,400.63,119.8z"/>
	<path fill="#FFA600" d="M369.1,34.61l-3.58-6.2c-13.64,8.15-25.69,18.71-35.55,31.17l5.68,4.36
		C344.94,52.23,356.27,42.29,369.1,34.61z"/>
	<path fill="#FFA600" d="M536.36,83.93c-0.17,0.34-0.33,0.68-0.49,1.03c-4.79,10.3-4.79,22.19,0,32.49c0.16,0.35,0.33,0.69,0.5,1.03
		C541.81,107.61,541.81,94.8,536.36,83.93z"/>
	<path fill="#FFA600" d="M536.36,123.78c-0.17,0.34-0.33,0.68-0.49,1.02c-4.79,10.3-4.79,22.19,0,32.49
		c0.16,0.35,0.33,0.69,0.5,1.03C541.81,147.45,541.81,134.65,536.36,123.78z"/>
	<path fill="#FFA600" d="M511.16,35.74c-12.75-9.48-27.12-16.57-42.4-20.92l-1.86,6.92c14.38,4.11,27.89,10.77,39.9,19.68
		L511.16,35.74z"/>
	<path fill="#FFA600" d="M466.87,77.61c0.16,0.35,0.32,0.69,0.49,1.03c5.44-10.88,5.44-23.68,0-34.55
		c-0.17,0.34-0.33,0.68-0.49,1.03C462.08,55.41,462.08,67.31,466.87,77.61z"/>
	<path fill="#FFA600" d="M435.14,22.86c6.69,10.14,17.78,16.54,29.92,17.27C458.36,29.98,447.27,23.58,435.14,22.86z"/>
	<path fill="#FFA600" d="M464.42,238.4c-6.75-9.6-17.53-15.63-29.28-16.34c6.69,10.15,17.78,16.55,29.92,17.28
		C464.85,239.02,464.64,238.71,464.42,238.4z"/>
	<path fill="#FFA600" d="M533.42,198.55c-6.74-9.59-17.52-15.62-29.27-16.33c6.69,10.15,17.78,16.55,29.91,17.27
		C533.85,199.17,533.64,198.86,533.42,198.55z"/>
	<path fill="#FFA600" d="M498.92,218.47c-6.75-9.59-17.52-15.62-29.28-16.33c6.7,10.15,17.78,16.55,29.92,17.27
		C499.35,219.09,499.14,218.78,498.92,218.47z"/>
	<path fill="#FFA600" d="M499.55,222.05c-12.13,0.73-23.22,7.13-29.91,17.28C481.78,238.6,492.86,232.2,499.55,222.05z"/>
	<path fill="#FFA600" d="M463.04,20.71l1.85-6.92c-15.4-3.88-31.39-4.93-47.17-3.1l0.93,7.11C433.5,16.09,448.54,17.07,463.04,20.71
		z"/>
	<path fill="#FFA600" d="M467.36,238c5.44-10.87,5.44-23.67,0-34.54c-0.17,0.34-0.33,0.68-0.49,1.02c-4.79,10.3-4.79,22.2,0,32.5
		C467.03,237.32,467.19,237.66,467.36,238z"/>
	<path fill="#FFA600" d="M534.06,202.13c-12.14,0.72-23.22,7.13-29.92,17.27C516.28,218.68,527.36,212.28,534.06,202.13z"/>
	<path fill="#FFA600" d="M534.07,82.61c-12.14,0.73-23.22,7.13-29.92,17.28c11.76-0.71,22.53-6.74,29.28-16.34
		C533.65,83.24,533.86,82.93,534.07,82.61z"/>
	<path fill="#FFA600" d="M536.37,198.16c5.44-10.87,5.44-23.67-0.01-34.54c-0.17,0.34-0.33,0.68-0.49,1.02
		c-4.79,10.3-4.79,22.19,0,32.49C536.03,197.48,536.2,197.82,536.37,198.16z"/>
	<path fill="#FFA600" d="M496.6,247.5l3.58,6.21c13.64-8.16,25.69-18.72,35.55-31.17l-5.68-4.37
		C520.76,229.88,509.43,239.82,496.6,247.5z"/>
	<path fill="#FFA600" d="M451.02,263.79l0.93,7.11c15.72-2.31,30.89-7.46,44.77-15.19l-3.58-6.21
		C480.07,256.76,465.8,261.61,451.02,263.79z"/>
	<path fill="#FFA600" d="M430.55,259.26c-0.21-0.32-0.42-0.63-0.64-0.94c-6.74-9.6-17.52-15.63-29.28-16.33
		C407.33,252.13,418.42,258.53,430.55,259.26z"/>
	<path fill="#FFA600" d="M402.66,261.4l-1.85,6.92c15.41,3.88,31.39,4.93,47.17,3.1l-0.93-7.1
		C432.2,266.03,417.16,265.04,402.66,261.4z"/>
	<path fill="#FFA600" d="M532.48,215l5.69,4.36c9.48-12.75,16.56-27.11,20.91-42.4l-6.92-1.85C548.06,189.48,541.39,203,532.48,215z
		"/>
	<path fill="#FFA600" d="M563.21,125.92l-7.1,0.94c1.71,14.85,0.72,29.88-2.91,44.38l6.92,1.86
		C564,157.69,565.05,141.71,563.21,125.92z"/>
	<path fill="#FFA600" d="M310.11,159.22l-7.1,0.94c2.31,15.72,7.46,30.88,15.19,44.77l6.21-3.59
		C317.14,188.28,312.3,174.01,310.11,159.22z"/>
	<path fill="#FFA600" d="M312.5,110.87l-6.92-1.86c-3.88,15.41-4.93,31.4-3.09,47.18l7.1-0.94
		C307.88,140.4,308.87,125.37,312.5,110.87z"/>
	<path fill="#FFA600" d="M354.54,246.37c12.75,9.48,27.12,16.57,42.4,20.92l1.86-6.92c-14.38-4.1-27.89-10.77-39.89-19.68
		L354.54,246.37z"/>
	<path fill="#FFA600" d="M333.22,67.11l-5.69-4.36c-9.48,12.75-16.56,27.12-20.91,42.4l6.92,1.85
		C317.64,92.63,324.31,79.11,333.22,67.11z"/>
	<path fill="#FFA600" d="M326.41,204.81l-6.21,3.58c8.15,13.64,18.71,25.68,31.17,35.55l4.36-5.69
		C344.02,228.96,334.09,217.63,326.41,204.81z"/>
	<path fill="#FFA600" d="M414.69,18.32l-0.94-7.11c-15.72,2.32-30.89,7.46-44.77,15.2l3.58,6.2
		C385.63,25.35,399.9,20.51,414.69,18.32z"/>
	<path fill="#FFA600" d="M501.85,218.09c5.44-10.88,5.44-23.68,0-34.55c-5.27,10.53-5.43,22.87-0.49,33.52
		C501.52,217.41,501.68,217.75,501.85,218.09z"/>
	<path fill="#FFA600" d="M432.36,25.2c-4.79,10.29-4.79,22.19,0,32.49c0.16,0.35,0.32,0.69,0.49,1.03c5.44-10.88,5.44-23.68,0-34.55
		C432.68,24.51,432.52,24.85,432.36,25.2z"/>
	<path fill="#FFA600" d="M435.14,62.7c6.69,10.15,17.78,16.55,29.92,17.27c-0.21-0.32-0.42-0.63-0.64-0.94
		C457.67,69.43,446.89,63.4,435.14,62.7z"/>
	<path fill="#FFA600" d="M400.63,40.12c11.76-0.71,22.53-6.74,29.28-16.34c0.22-0.31,0.43-0.62,0.64-0.94
		C418.41,23.57,407.33,29.97,400.63,40.12z"/>
	<path fill="#FFA600" d="M465.06,42.77c-12.13,0.73-23.22,7.13-29.91,17.28c11.75-0.71,22.53-6.74,29.27-16.34
		C464.64,43.4,464.85,43.09,465.06,42.77z"/>
	<path fill="#FFA600" d="M465.05,241.97c-12.14,0.73-23.22,7.13-29.91,17.28C447.27,258.52,458.36,252.12,465.05,241.97z"/>
	<path fill="#FFA600" d="M366.13,60.04c11.75-0.71,22.53-6.74,29.27-16.34c0.22-0.31,0.43-0.62,0.64-0.94
		C383.91,43.49,372.82,49.89,366.13,60.04z"/>
	<path fill="#FFA600" d="M501.37,65.04c-4.79,10.3-4.79,22.19,0,32.5c0.16,0.34,0.32,0.68,0.49,1.02c5.44-10.88,5.44-23.68,0-34.55
		C501.69,64.35,501.53,64.69,501.37,65.04z"/>
	<path fill="#FFA600" d="M467.36,118.48c5.44-10.87,5.44-23.68,0-34.55C461.92,94.81,461.92,107.61,467.36,118.48z"/>
	<path fill="#FFA600" d="M396.05,79.97c-6.7-10.15-17.78-16.55-29.92-17.27C372.83,72.85,383.91,79.25,396.05,79.97z"/>
	<path fill="#FFA600" d="M504.15,62.7c6.69,10.15,17.78,16.55,29.91,17.27C527.37,69.82,516.28,63.42,504.15,62.7z"/>
	<path fill="#FFA600" d="M498.91,63.62c0.22-0.31,0.43-0.62,0.64-0.94c-12.13,0.73-23.22,7.13-29.91,17.28
		C481.4,79.25,492.17,73.22,498.91,63.62z"/>
	<path fill="#FFA600" d="M469.64,42.78c6.7,10.14,17.78,16.54,29.92,17.27C492.86,49.9,481.78,43.5,469.64,42.78z"/>
	<path fill="#FFA600" d="M397.86,45.12c-4.94,10.64-4.78,22.98,0.49,33.52c5.44-10.88,5.44-23.68,0-34.55
		C398.18,44.43,398.02,44.77,397.86,45.12z"/>
	<path fill="#FFA600" d="M361.54,219.41c-0.21-0.32-0.42-0.63-0.64-0.94c-6.74-9.59-17.52-15.62-29.27-16.33
		C338.32,212.29,349.41,218.69,361.54,219.41z"/>
	<path fill="#FFA600" d="M396.05,239.34c-0.21-0.32-0.42-0.63-0.64-0.94c-6.75-9.6-17.52-15.63-29.28-16.34
		C372.83,232.21,383.91,238.61,396.05,239.34z"/>
	<path fill="#FFA600" d="M363.35,65.03c-4.79,10.3-4.79,22.2,0,32.5c0.16,0.35,0.33,0.69,0.5,1.03c5.44-10.88,5.44-23.68-0.01-34.55
		C363.67,64.35,363.51,64.69,363.35,65.03z"/>
	<path fill="#FFA600" d="M398.35,238c5.44-10.87,5.44-23.67,0-34.54c-5.27,10.53-5.43,22.87-0.49,33.52
		C398.02,237.32,398.18,237.66,398.35,238z"/>
	<path fill="#FFA600" d="M432.84,257.93c5.44-10.87,5.44-23.67,0-34.55c-5.27,10.54-5.43,22.88-0.49,33.52
		C432.51,257.25,432.67,257.59,432.84,257.93z"/>
	<path fill="#FFA600" d="M430.55,222.05c-12.14,0.73-23.22,7.13-29.92,17.28C412.77,238.6,423.85,232.2,430.55,222.05z"/>
	<path fill="#FFA600" d="M363.83,218.09c5.44-10.88,5.44-23.68,0-34.55c-5.27,10.53-5.43,22.87-0.49,33.52
		C363.5,217.41,363.66,217.75,363.83,218.09z"/>
	<path fill="#FFA600" d="M329.34,118.48c5.44-10.87,5.44-23.68,0-34.55C323.9,94.81,323.9,107.61,329.34,118.48z"/>
	<path fill="#FFA600" d="M331.62,79.96c11.76-0.71,22.53-6.74,29.28-16.34c0.22-0.31,0.43-0.62,0.64-0.94
		C349.4,63.41,338.32,69.81,331.62,79.96z"/>
	<path fill="#FFA600" d="M329.34,198.16c5.44-10.87,5.44-23.67,0-34.54C323.9,174.49,323.9,187.29,329.34,198.16z"/>
	<path fill="#FFA600" d="M329.34,158.32c5.44-10.87,5.44-23.67,0-34.54C323.9,134.65,323.9,147.45,329.34,158.32z"/>
	<path fill="#FFA600" d="M361.54,182.21c-12.14,0.72-23.22,7.12-29.92,17.27C343.76,198.76,354.84,192.36,361.54,182.21z"/>
</g>
<path fill="#FFA600" d="M434.86,295.81c-69.38,0-125.62,56.24-125.62,125.62s56.24,125.62,125.62,125.62s125.62-56.24,125.62-125.62
	S504.24,295.81,434.86,295.81z M538.38,364.31c5.44,10.87,5.44,23.67,0,34.54c-0.17-0.34-0.33-0.68-0.49-1.03
	c-4.79-10.29-4.79-22.19,0-32.48C538.05,364.99,538.21,364.65,538.38,364.31z M536.08,400.18c-12.14-0.72-23.23-7.12-29.92-17.27
	c11.75,0.71,22.53,6.74,29.28,16.33C535.66,399.55,535.87,399.86,536.08,400.18z M536.08,440.03c-12.14-0.73-23.23-7.13-29.92-17.28
	c11.75,0.71,22.53,6.74,29.28,16.34C535.66,439.4,535.87,439.71,536.08,440.03z M432.57,499.77c-12.14-0.72-23.23-7.12-29.92-17.27
	c11.76,0.71,22.53,6.74,29.28,16.33C432.15,499.14,432.36,499.45,432.57,499.77z M398.06,479.87c-12.14-0.73-23.22-7.13-29.92-17.27
	c11.76,0.7,22.53,6.73,29.28,16.33C397.64,479.24,397.85,479.55,398.06,479.87z M398.05,482.5c-6.69,10.15-17.77,16.55-29.91,17.28
	C374.83,489.63,385.92,483.23,398.05,482.5z M362.91,463.52c-6.74,9.6-17.52,15.63-29.27,16.34c6.69-10.15,17.77-16.55,29.91-17.28
	C363.34,462.9,363.13,463.21,362.91,463.52z M333.64,442.66c12.14,0.72,23.22,7.12,29.92,17.27
	C351.42,459.21,340.34,452.81,333.64,442.66z M432.57,340.41c-12.14-0.73-23.23-7.13-29.92-17.27c11.76,0.7,22.53,6.73,29.28,16.33
	C432.15,339.78,432.36,340.09,432.57,340.41z M466.43,324.09c-6.74,9.6-17.52,15.63-29.27,16.33c6.69-10.15,17.78-16.55,29.91-17.27
	C466.86,323.47,466.65,323.78,466.43,324.09z M466.43,359.4c0.22,0.31,0.43,0.62,0.64,0.94c-12.14-0.72-23.22-7.12-29.92-17.27
	C448.91,343.77,459.68,349.8,466.43,359.4z M500.93,344c-6.75,9.6-17.52,15.63-29.28,16.33c6.7-10.15,17.78-16.55,29.92-17.27
	C501.36,343.38,501.15,343.69,500.93,344z M501.57,380.25c-12.13-0.72-23.22-7.12-29.91-17.27
	C483.79,363.7,494.88,370.1,501.57,380.25z M501.57,420.1c-12.13-0.72-23.22-7.12-29.92-17.27c11.76,0.71,22.54,6.74,29.28,16.33
	C501.15,419.47,501.36,419.78,501.57,420.1z M467.07,440.03c-12.13-0.72-23.22-7.12-29.92-17.27c11.76,0.7,22.54,6.73,29.28,16.33
	C466.65,439.4,466.86,439.71,467.07,440.03z M432.56,459.95c-12.13-0.73-23.22-7.13-29.91-17.27c11.75,0.7,22.53,6.73,29.27,16.33
	C432.14,459.32,432.35,459.63,432.56,459.95z M432.56,462.58c-6.7,10.15-17.78,16.55-29.92,17.28
	C409.34,469.71,420.42,463.31,432.56,462.58z M397.43,443.61c-6.75,9.6-17.52,15.63-29.28,16.34c6.69-10.15,17.78-16.55,29.92-17.28
	C397.86,442.99,397.65,443.3,397.43,443.61z M398.06,440.03c-12.14-0.73-23.22-7.13-29.92-17.28
	C380.28,423.48,391.36,429.88,398.06,440.03z M368.14,420.09c6.69-10.14,17.78-16.55,29.91-17.27
	C391.36,412.97,380.28,419.37,368.14,420.09z M400.36,404.15c5.44,10.87,5.44,23.67,0,34.54
	C394.92,427.82,394.92,415.02,400.36,404.15z M466.44,403.78c-6.75,9.6-17.52,15.63-29.28,16.33c6.7-10.15,17.78-16.55,29.92-17.27
	C466.87,403.16,466.66,403.47,466.44,403.78z M437.15,382.91c12.14,0.73,23.22,7.13,29.92,17.27
	C454.93,399.46,443.85,393.06,437.15,382.91z M437.15,380.25c6.69-10.15,17.78-16.55,29.91-17.27
	C460.37,373.13,449.28,379.53,437.15,380.25z M434.87,418.78c-5.44-10.87-5.44-23.67,0-34.55
	C440.31,395.11,440.31,407.91,434.87,418.78z M402.64,400.17c6.7-10.15,17.78-16.55,29.92-17.27
	C425.86,393.05,414.78,399.45,402.64,400.17z M432.57,420.1c-12.14-0.73-23.22-7.13-29.92-17.27
	C414.79,403.55,425.88,409.95,432.57,420.1z M432.56,422.75c-6.69,10.15-17.78,16.55-29.91,17.27
	C409.34,429.87,420.43,423.47,432.56,422.75z M434.85,424.08c5.45,10.87,5.45,23.67,0.01,34.54c-0.17-0.34-0.34-0.68-0.5-1.03
	C429.42,446.95,429.58,434.61,434.85,424.08z M467.06,442.66c-6.69,10.15-17.78,16.55-29.91,17.28
	C443.84,449.79,454.93,443.39,467.06,442.66z M468.88,405.18c0.16-0.35,0.32-0.69,0.49-1.03c5.44,10.87,5.44,23.67,0,34.54
	c-0.17-0.34-0.33-0.68-0.49-1.03C464.09,427.37,464.09,415.47,468.88,405.18z M501.57,422.74c-6.7,10.15-17.78,16.55-29.92,17.28
	C478.35,429.87,489.43,423.47,501.57,422.74z M503.37,385.26c0.16-0.35,0.32-0.69,0.49-1.03c5.44,10.87,5.44,23.67,0,34.55
	c-0.17-0.34-0.33-0.68-0.49-1.03C498.58,407.45,498.58,395.55,503.37,385.26z M471.65,400.17c6.7-10.15,17.78-16.55,29.92-17.27
	c-0.21,0.32-0.42,0.63-0.64,0.94C494.18,393.44,483.41,399.47,471.65,400.17z M469.37,398.85c-5.44-10.87-5.44-23.67,0-34.54
	C474.81,375.18,474.81,387.98,469.37,398.85z M434.85,378.93c-0.17-0.34-0.33-0.68-0.49-1.03c-4.94-10.64-4.78-22.98,0.49-33.51
	C440.29,355.26,440.29,368.06,434.85,378.93z M432.56,343.06c-6.7,10.15-17.78,16.55-29.92,17.27
	C409.34,350.18,420.42,343.78,432.56,343.06z M431.92,379.32c0.22,0.31,0.43,0.62,0.64,0.94c-12.13-0.72-23.22-7.12-29.91-17.27
	C414.4,363.7,425.18,369.72,431.92,379.32z M400.36,398.85c-0.17-0.34-0.33-0.68-0.49-1.03c-4.79-10.29-4.79-22.19,0-32.48
	c0.16-0.35,0.32-0.69,0.49-1.03C405.8,375.18,405.8,387.98,400.36,398.85z M397.43,363.93c-6.75,9.6-17.52,15.63-29.28,16.33
	c6.69-10.15,17.78-16.55,29.92-17.27C397.86,363.31,397.65,363.62,397.43,363.93z M397.42,399.24c0.22,0.31,0.43,0.62,0.64,0.94
	c-12.14-0.72-23.22-7.12-29.92-17.27C379.9,383.62,390.67,389.65,397.42,399.24z M365.84,418.78c-0.17-0.34-0.33-0.68-0.49-1.03
	c-4.79-10.3-4.79-22.2,0-32.49c0.16-0.35,0.32-0.69,0.49-1.03C371.28,395.1,371.29,407.9,365.84,418.78z M362.91,383.84
	c-6.74,9.6-17.52,15.63-29.27,16.33c6.69-10.15,17.77-16.55,29.91-17.27C363.34,383.22,363.13,383.53,362.91,383.84z M362.92,419.16
	c0.22,0.31,0.43,0.62,0.64,0.94c-12.14-0.72-23.23-7.12-29.92-17.27C345.39,403.54,356.17,409.57,362.92,419.16z M363.55,422.74
	c-6.69,10.15-17.78,16.55-29.91,17.28C340.33,429.87,351.41,423.47,363.55,422.74z M365.86,424.07c5.44,10.87,5.44,23.67,0,34.54
	C360.42,447.74,360.42,434.94,365.86,424.07z M399.87,445.02c0.16-0.35,0.32-0.69,0.49-1.03c5.44,10.87,5.44,23.67,0,34.54
	c-0.17-0.34-0.33-0.68-0.49-1.03C395.08,467.21,395.08,455.31,399.87,445.02z M434.86,463.91c5.45,10.87,5.45,23.67,0.01,34.55
	c-0.17-0.34-0.34-0.68-0.5-1.03C429.43,486.78,429.59,474.44,434.86,463.91z M467.07,482.51c-0.21,0.32-0.42,0.63-0.64,0.94
	c-6.74,9.6-17.52,15.63-29.27,16.34C443.85,489.64,454.94,483.24,467.07,482.51z M437.15,462.6c12.14,0.72,23.22,7.12,29.92,17.27
	C454.93,479.14,443.85,472.74,437.15,462.6z M469.37,443.99c5.44,10.87,5.44,23.67,0,34.54
	C463.93,467.66,463.93,454.86,469.37,443.99z M501.57,462.58c-0.21,0.32-0.42,0.63-0.64,0.94c-6.75,9.6-17.52,15.63-29.28,16.34
	C478.35,469.71,489.43,463.31,501.57,462.58z M471.66,442.66c12.13,0.72,23.22,7.12,29.91,17.27
	C489.44,459.21,478.35,452.81,471.66,442.66z M503.87,424.07c5.44,10.87,5.44,23.67,0,34.54
	C498.43,447.74,498.43,434.94,503.87,424.07z M536.08,442.67c-0.21,0.32-0.42,0.63-0.64,0.94c-6.74,9.6-17.52,15.63-29.27,16.34
	C512.86,449.8,523.95,443.4,536.08,442.67z M506.16,420.09c6.69-10.14,17.77-16.55,29.91-17.27c-0.21,0.32-0.42,0.63-0.64,0.94
	C528.69,413.36,517.91,419.39,506.16,420.09z M535.44,363.93c-6.74,9.6-17.52,15.63-29.27,16.33c6.69-10.15,17.78-16.55,29.91-17.27
	C535.87,363.31,535.66,363.62,535.44,363.93z M536.08,360.34c-12.14-0.72-23.23-7.12-29.92-17.27
	C518.29,343.79,529.38,350.19,536.08,360.34z M503.87,344.39c5.44,10.87,5.44,23.67,0,34.54c-5.27-10.53-5.43-22.87-0.49-33.51
	C503.54,345.07,503.7,344.73,503.87,344.39z M501.57,340.42c-12.13-0.72-23.22-7.12-29.92-17.27
	C483.79,323.87,494.88,330.27,501.57,340.42z M469.37,324.46c5.44,10.88,5.44,23.68,0,34.55c-0.17-0.34-0.33-0.68-0.49-1.03
	c-4.79-10.29-4.79-22.19,0-32.49C469.04,325.14,469.2,324.8,469.37,324.46z M467.07,320.5c-12.14-0.72-23.22-7.12-29.92-17.27
	C449.29,303.95,460.37,310.35,467.07,320.5z M434.86,304.54c5.45,10.88,5.45,23.68,0.01,34.55c-0.17-0.34-0.34-0.68-0.5-1.03
	c-4.79-10.3-4.79-22.19,0-32.49C434.53,305.22,434.69,304.88,434.86,304.54z M432.56,303.22c-0.21,0.32-0.42,0.63-0.64,0.94
	c-6.75,9.6-17.52,15.63-29.28,16.33C409.34,310.34,420.42,303.94,432.56,303.22z M400.36,324.46c5.44,10.88,5.44,23.68,0,34.55
	c-5.27-10.53-5.43-22.87-0.49-33.52C400.03,325.14,400.19,324.8,400.36,324.46z M398.05,323.14c-0.21,0.32-0.42,0.63-0.64,0.94
	c-6.74,9.6-17.51,15.63-29.27,16.33C374.83,330.26,385.92,323.86,398.05,323.14z M398.06,360.34c-12.14-0.72-23.22-7.12-29.92-17.27
	C380.28,343.79,391.36,350.19,398.06,360.34z M365.86,344.39c5.44,10.87,5.44,23.67,0,34.54c-5.27-10.53-5.43-22.87-0.49-33.51
	C365.53,345.07,365.69,344.73,365.86,344.39z M363.55,343.06c-0.21,0.32-0.42,0.63-0.64,0.94c-6.74,9.6-17.52,15.63-29.27,16.33
	C340.33,350.18,351.41,343.78,363.55,343.06z M363.56,380.25c-12.14-0.72-23.22-7.12-29.92-17.27
	C345.78,363.7,356.86,370.1,363.56,380.25z M331.35,364.31c5.44,10.87,5.44,23.67,0,34.54
	C325.91,387.98,325.91,375.18,331.35,364.31z M331.35,404.15c5.44,10.87,5.44,23.67,0,34.54
	C325.91,427.82,325.91,415.02,331.35,404.15z M331.35,443.99c5.44,10.87,5.44,23.67,0,34.54
	C325.91,467.66,325.91,454.86,331.35,443.99z M333.64,482.52c11.75,0.7,22.53,6.73,29.28,16.33c0.22,0.31,0.43,0.62,0.64,0.94
	C351.42,499.06,340.33,492.67,333.64,482.52z M365.35,497.44c-4.79-10.3-4.79-22.2,0-32.5c0.16-0.34,0.32-0.68,0.49-1.02
	c5.44,10.87,5.45,23.67,0,34.54C365.67,498.12,365.51,497.78,365.35,497.44z M368.14,502.44c11.76,0.7,22.53,6.73,29.28,16.33
	c0.22,0.31,0.43,0.62,0.64,0.94C385.92,518.99,374.84,512.59,368.14,502.44z M399.87,517.35c-4.94-10.65-4.78-22.99,0.49-33.52
	c5.44,10.87,5.44,23.67,0,34.55C400.19,518.04,400.03,517.7,399.87,517.35z M432.56,502.42c-6.7,10.15-17.78,16.55-29.92,17.28
	C409.34,509.55,420.42,503.15,432.56,502.42z M402.65,522.36c11.75,0.7,22.53,6.73,29.27,16.33c0.22,0.31,0.43,0.62,0.64,0.94
	C420.43,538.91,409.34,532.51,402.65,522.36z M434.36,537.28c-4.94-10.65-4.78-22.99,0.49-33.52c5.44,10.87,5.44,23.67,0,34.54
	C434.68,537.96,434.52,537.62,434.36,537.28z M437.15,539.62c6.69-10.15,17.78-16.55,29.91-17.27
	C460.37,532.49,449.28,538.9,437.15,539.62z M437.15,502.44c11.76,0.7,22.53,6.73,29.28,16.33c0.22,0.31,0.43,0.62,0.64,0.94
	C454.93,518.99,443.85,512.59,437.15,502.44z M468.88,517.35c-4.79-10.3-4.79-22.2,0-32.49c0.16-0.35,0.32-0.69,0.49-1.03
	c5.44,10.87,5.44,23.67,0,34.55C469.2,518.04,469.04,517.7,468.88,517.35z M471.65,519.7c6.7-10.15,17.78-16.55,29.92-17.28
	C494.87,512.57,483.79,518.97,471.65,519.7z M471.65,482.52c11.76,0.7,22.54,6.73,29.28,16.33c0.22,0.31,0.43,0.62,0.64,0.94
	C489.44,499.06,478.35,492.67,471.65,482.52z M503.37,497.44c-4.79-10.3-4.79-22.2,0-32.5c0.16-0.34,0.32-0.68,0.49-1.02
	c5.44,10.87,5.44,23.67,0,34.54C503.69,498.12,503.53,497.78,503.37,497.44z M506.16,499.78c6.69-10.15,17.77-16.55,29.91-17.28
	C529.38,492.65,518.29,499.05,506.16,499.78z M506.16,462.6c11.75,0.7,22.53,6.73,29.28,16.33c0.22,0.31,0.43,0.62,0.64,0.94
	C523.94,479.14,512.85,472.74,506.16,462.6z M538.38,478.53c-0.17-0.34-0.33-0.68-0.49-1.03c-4.79-10.29-4.79-22.19,0-32.48
	c0.16-0.35,0.32-0.69,0.49-1.03C543.82,454.86,543.82,467.66,538.38,478.53z M538.38,438.69c-0.17-0.34-0.33-0.68-0.49-1.03
	c-4.79-10.29-4.79-22.19,0-32.48c0.16-0.35,0.32-0.69,0.49-1.03C543.82,415.02,543.82,427.82,538.38,438.69z"/>
<path fill="#FFA600" d="M147.48,15.93c-70.59,0-127.81,57.22-127.81,127.81s57.22,127.81,127.81,127.81s127.81-57.22,127.81-127.81
	S218.07,15.93,147.48,15.93z M247.87,122.09c-6.85-10.16-18-16.6-30.23-17.46c12.23-0.85,23.38-7.29,30.23-17.45
	C242.48,98.19,242.48,111.08,247.87,122.09z M247.87,161.19c-6.85-10.16-18-16.6-30.23-17.45c12.23-0.86,23.38-7.3,30.23-17.46
	C242.49,137.3,242.49,150.18,247.87,161.19z M47.09,126.28c6.84,10.18,18,16.63,30.23,17.46c-12.22,0.86-23.37,7.3-30.23,17.45
	C52.49,150.18,52.49,137.29,47.09,126.28z M114.83,48.07c6.85,10.16,18,16.6,30.23,17.46c-12.23,0.85-23.38,7.29-30.23,17.45
	C120.2,71.96,120.2,59.09,114.83,48.07z M216.43,67.62c6.85,10.17,18,16.61,30.23,17.46c-12.23,0.85-23.38,7.29-30.23,17.45
	C221.8,91.52,221.8,78.64,216.43,67.62z M214.01,102.53c-6.86-10.15-18.01-16.59-30.24-17.45c12.23-0.86,23.38-7.29,30.24-17.46
	C208.64,78.64,208.64,91.52,214.01,102.53z M214.01,141.64c-6.86-10.16-18.01-16.6-30.24-17.45c12.23-0.86,23.38-7.3,30.24-17.46
	C208.59,117.74,208.59,130.64,214.01,141.64z M214.01,180.75c-6.85-10.17-18.01-16.61-30.24-17.46
	c12.25-0.79,23.42-7.25,30.24-17.45C208.63,156.85,208.63,169.73,214.01,180.75z M80.96,145.84c6.85,10.16,18,16.6,30.23,17.45
	c-12.24,0.82-23.4,7.27-30.23,17.46C86.33,169.73,86.33,156.85,80.96,145.84z M80.96,106.73c6.85,10.17,18,16.61,30.23,17.46
	c-12.23,0.84-23.38,7.28-30.23,17.45C86.33,130.62,86.33,117.75,80.96,106.73z M180.14,161.19c-6.86-10.16-18.01-16.6-30.23-17.45
	c12.22-0.86,23.37-7.3,30.23-17.46C174.77,137.3,174.77,150.18,180.14,161.19z M182.56,126.28c6.86,10.17,18.01,16.6,30.23,17.46
	c-12.22,0.86-23.37,7.29-30.23,17.45C187.93,150.18,187.93,137.3,182.56,126.28z M182.56,87.18c6.84,10.17,18,16.61,30.23,17.45
	c-12.22,0.86-23.37,7.3-30.23,17.46C187.93,111.07,187.93,98.19,182.56,87.18z M180.14,122.09c-6.85-10.17-18.01-16.61-30.23-17.46
	c12.22-0.87,23.36-7.31,30.23-17.45C174.77,98.19,174.77,111.07,180.14,122.09z M178.93,124.19c-12.23,0.85-23.38,7.29-30.24,17.45
	c5.37-11.02,5.37-23.89,0-34.91C155.54,116.9,166.7,123.34,178.93,124.19z M146.27,141.64c-6.85-10.16-18.01-16.6-30.23-17.45
	c12.22-0.86,23.37-7.3,30.23-17.46C140.9,117.75,140.9,130.62,146.27,141.64z M112.4,161.19c-6.84-10.16-18-16.61-30.23-17.45
	c12.23-0.86,23.38-7.3,30.23-17.46C106.86,137.26,106.86,150.22,112.4,161.19z M114.83,126.28c6.85,10.16,18,16.6,30.23,17.46
	c-12.23,0.84-23.39,7.28-30.23,17.45C120.2,150.18,120.2,137.3,114.83,126.28z M114.83,122.09c5.37-11.02,5.37-23.9,0-34.91
	c6.85,10.16,18,16.6,30.23,17.45C132.83,105.48,121.67,111.92,114.83,122.09z M112.4,122.09c-6.85-10.16-18-16.6-30.23-17.46
	c12.23-0.85,23.38-7.29,30.23-17.45C107.02,98.19,107.02,111.07,112.4,122.09z M112.4,165.39c-5.45,11-5.45,23.91,0,34.91
	c-6.85-10.16-18-16.6-30.23-17.45C94.4,182,105.56,175.56,112.4,165.39z M114.83,165.39c6.85,10.16,18,16.6,30.23,17.46
	c-12.24,0.82-23.4,7.27-30.23,17.45C120.2,189.28,120.2,176.41,114.83,165.39z M116.04,163.29c12.22-0.85,23.37-7.29,30.23-17.45
	c-5.38,11.01-5.38,23.89,0,34.91C139.42,170.58,128.27,164.14,116.04,163.29z M148.69,145.84c6.86,10.16,18.01,16.6,30.24,17.45
	c-12.23,0.86-23.38,7.3-30.24,17.46C154.06,169.73,154.06,156.85,148.69,145.84z M180.14,165.39c-5.38,11.02-5.38,23.9,0,34.91
	c-6.86-10.16-18.01-16.6-30.23-17.45C162.13,181.99,173.28,175.55,180.14,165.39z M182.56,165.39c6.83,10.19,18,16.63,30.23,17.46
	c-12.22,0.85-23.37,7.29-30.23,17.45C187.93,189.28,187.93,176.41,182.56,165.39z M182.56,82.98c5.37-11.02,5.37-23.89,0-34.91
	c6.86,10.16,18.01,16.6,30.23,17.46C200.57,66.38,189.41,72.82,182.56,82.98z M180.14,82.98c-6.86-10.16-18.01-16.6-30.23-17.45
	c12.22-0.86,23.37-7.3,30.23-17.46C174.75,59.08,174.75,71.97,180.14,82.98z M178.93,85.08c-12.24,0.83-23.4,7.27-30.24,17.45
	c5.37-11.01,5.37-23.89,0-34.91C155.52,77.81,166.69,84.26,178.93,85.08z M146.27,102.53c-6.82-10.19-17.99-16.64-30.23-17.45
	c12.22-0.86,23.37-7.3,30.23-17.46C140.89,78.64,140.89,91.52,146.27,102.53z M112.4,82.98c-6.85-10.16-18-16.6-30.23-17.45
	c12.23-0.86,23.38-7.3,30.23-17.46C107.03,59.09,107.03,71.96,112.4,82.98z M80.96,67.62c6.85,10.17,18,16.61,30.23,17.46
	c-12.23,0.84-23.38,7.29-30.23,17.45C86.33,91.52,86.33,78.64,80.96,67.62z M78.54,102.53c-6.84-10.17-18-16.62-30.24-17.45
	c12.23-0.85,23.38-7.29,30.24-17.46C73.17,78.64,73.17,91.52,78.54,102.53z M78.54,141.64c-6.85-10.17-18.01-16.61-30.24-17.45
	c12.24-0.84,23.4-7.28,30.24-17.46C73.17,117.75,73.17,130.62,78.54,141.64z M78.54,145.84c-5.37,11.01-5.37,23.89,0,34.91
	c-6.86-10.16-18.01-16.6-30.24-17.46C60.52,162.42,71.67,155.99,78.54,145.84z M78.54,219.85c-6.86-10.16-18.01-16.6-30.24-17.45
	c12.24-0.81,23.41-7.26,30.24-17.46C73.17,195.96,73.17,208.84,78.54,219.85z M80.96,184.94c6.85,10.17,18,16.61,30.23,17.46
	c-12.23,0.84-23.39,7.28-30.23,17.45C86.33,208.84,86.33,195.96,80.96,184.94z M112.4,204.5c-5.37,11.01-5.37,23.89,0,34.91
	c-6.85-10.16-18-16.6-30.23-17.46C94.4,221.1,105.55,214.66,112.4,204.5z M114.83,204.5c6.85,10.16,18,16.6,30.23,17.45
	c-12.23,0.85-23.38,7.29-30.23,17.46C120.2,228.39,120.2,215.52,114.83,204.5z M116.04,202.4c12.23-0.85,23.38-7.29,30.23-17.46
	c-5.39,11.02-5.39,23.9,0,34.91C139.41,209.7,128.26,203.26,116.04,202.4z M148.69,184.94c6.85,10.18,18,16.62,30.24,17.46
	c-12.23,0.86-23.38,7.29-30.24,17.45C154.06,208.84,154.06,195.96,148.69,184.94z M180.14,204.5c-5.38,11.01-5.38,23.89,0,34.91
	c-6.86-10.16-18.01-16.6-30.23-17.46C162.13,221.1,173.28,214.66,180.14,204.5z M182.56,204.5c6.84,10.17,18,16.61,30.23,17.45
	c-12.22,0.86-23.37,7.3-30.23,17.46C187.93,228.39,187.93,215.52,182.56,204.5z M183.77,202.4c12.23-0.86,23.38-7.3,30.24-17.46
	c-5.41,11.01-5.41,23.91,0,34.91C207.15,209.7,196,203.26,183.77,202.4z M216.43,184.94c6.85,10.17,18,16.61,30.23,17.46
	c-12.23,0.85-23.38,7.29-30.23,17.45C221.8,208.84,221.8,195.96,216.43,184.94z M216.43,145.84c6.75,10.27,17.96,16.74,30.23,17.45
	c-12.23,0.85-23.38,7.29-30.23,17.46C221.8,169.73,221.8,156.85,216.43,145.84z M216.43,141.64c5.37-11.02,5.37-23.89,0-34.91
	c6.85,10.16,18,16.6,30.23,17.46C234.41,124.98,223.24,131.43,216.43,141.64z M246.85,81.38c-7.21-9.59-18.36-15.39-30.31-15.82
	c-0.44-0.02-0.88-0.03-1.32-0.03c-0.21-0.36-0.42-0.72-0.64-1.07c-6.9-11.12-18.92-18.06-31.99-18.47
	c-0.42-0.01-0.83-0.02-1.24-0.02c-0.2-0.34-0.4-0.67-0.6-1c-6.35-10.19-16.99-17-28.95-18.46C190.62,27.94,226.2,48.49,246.85,81.38
	z M178.88,45.98c-12.21,0.86-23.35,7.29-30.19,17.45c5.37-11.02,5.37-23.89,0.01-34.9C155.54,38.68,166.67,45.11,178.88,45.98z
	 M146.27,63.43c-6.86-10.16-18.01-16.6-30.23-17.46c12.22-0.85,23.38-7.29,30.23-17.45C140.9,39.53,140.9,52.41,146.27,63.43z
	 M143.16,26.58c-12.35,1.45-23.3,8.63-29.55,19.39c-0.41,0-0.82,0.01-1.24,0.02c-13.49,0.43-25.85,7.8-32.62,19.54
	c-0.44,0-0.88,0.01-1.32,0.03c-11.95,0.43-23.1,6.23-30.31,15.82C68.74,48.47,104.35,27.94,143.16,26.58z M47.09,87.18
	c6.86,10.16,18.01,16.6,30.23,17.45c-12.23,0.85-23.38,7.29-30.23,17.46C52.48,111.07,52.48,98.19,47.09,87.18z M43.79,198.61
	c-18.16-34.33-18.16-75.42,0-109.74c-4.68,11.04-4.13,23.58,1.45,34.15c0.2,0.39,0.42,0.78,0.64,1.17
	c-0.22,0.38-0.43,0.76-0.63,1.14c-6.15,11.5-6.15,25.31,0,36.81c0.2,0.38,0.41,0.77,0.63,1.15c-0.22,0.39-0.44,0.78-0.64,1.17
	C39.66,175.03,39.11,187.57,43.79,198.61z M47.09,165.39c6.85,10.17,18,16.61,30.23,17.46c-12.22,0.85-23.38,7.29-30.23,17.45
	C52.46,189.28,52.46,176.41,47.09,165.39z M48.12,206.1c7.21,9.59,18.36,15.39,30.31,15.82c0.44,0.02,0.88,0.03,1.32,0.03
	c0.21,0.36,0.42,0.72,0.64,1.07c6.89,11.12,18.91,18.06,31.98,18.47c0.42,0.01,0.83,0.02,1.24,0.02c0.2,0.34,0.4,0.67,0.6,1
	c6.35,10.19,16.99,17,28.95,18.46C104.35,259.54,68.76,238.99,48.12,206.1z M116.04,241.51c12.22-0.86,23.38-7.3,30.23-17.46
	c-5.4,11.01-5.4,23.9,0,34.91C139.41,248.8,128.26,242.36,116.04,241.51z M148.69,224.05c6.84,10.19,18,16.63,30.24,17.46
	c-12.23,0.84-23.39,7.28-30.24,17.45C154.06,247.94,154.06,235.07,148.69,224.05z M151.8,260.9c12.36-1.45,23.31-8.64,29.55-19.39
	c0.41,0,0.82-0.01,1.24-0.02c13.49-0.43,25.85-7.8,32.63-19.54c0.44,0,0.88-0.01,1.32-0.03c11.95-0.44,23.09-6.24,30.31-15.83
	C226.23,239.01,190.62,259.54,151.8,260.9z M247.87,200.3c-6.85-10.16-18-16.6-30.23-17.45c12.23-0.86,23.38-7.3,30.23-17.46
	C242.5,176.41,242.5,189.28,247.87,200.3z M249.71,164.45c-0.2-0.39-0.41-0.78-0.63-1.16c0.22-0.38,0.43-0.77,0.63-1.15
	c6.15-11.5,6.15-25.31,0-36.81c-0.2-0.38-0.41-0.76-0.63-1.14c0.22-0.38,0.43-0.77,0.63-1.16c5.6-10.58,6.15-23.12,1.46-34.17
	c18.17,34.33,18.17,75.43,0,109.76C255.87,187.57,255.32,175.02,249.71,164.45z"/>
<text transform="matrix(1 0 0 1 217.1924 557.4731)" font-family="'MyriadPro-Regular'" font-size="16px">freepatternsarea.com</text>
</svg>
